<svg width="20" height="20" viewBox="0 0 20 20" fill="none" xmlns="http://www.w3.org/2000/svg">
<path d="M1.99951 1H17.9996C18.5519 1 18.9996 1.44764 18.9996 1.99987L18.9998 3.58569C18.9999 3.85097 18.8945 4.10538 18.7069 4.29295L12.2924 10.7071C12.1049 10.8946 11.9995 11.149 11.9995 11.4142V17.7192C11.9995 18.3698 11.3881 18.8472 10.757 18.6894L8.757 18.1894C8.3118 18.0781 7.99951 17.6781 7.99951 17.2192V11.4142C7.99951 11.149 7.89415 10.8946 7.70662 10.7071L1.2924 4.29289C1.10486 4.10536 0.999512 3.851 0.999512 3.58579V2C0.999512 1.44772 1.44722 1 1.99951 1Z" stroke="#797979" stroke-width="1.5" stroke-linecap="round" stroke-linejoin="round"/>
</svg>
